# xmcd
#
# Track frame offsets:
#	150
#	19562
#	30025
#	56175
#	77837
#	98937
#	133887
#	173150
#	188337
#	223775
#	246550
#
# Disc length: 3557 seconds
#
# Revision: 0
# Processed by: cddbd v1.5.2PL0 Copyright (c) Steve Scherf et al.
# Submitted via: EasyCDDAExtractor 15.2.5.1
#
DISCID=900de30b
DTITLE=陳昇 - 恨情歌
DYEAR=1995
DGENRE=
TTITLE0=恨情歌
TTITLE1=蛾
TTITLE2=凡人都寂寞
TTITLE3=農夫
TTITLE4=姑姑
TTITLE5=四號
TTITLE6=再見 阿仔嬸
TTITLE7=害怕
TTITLE8=瘋子
TTITLE9=十七號省道
TTITLE10=藍
EXTD=
EXTT0=
EXTT1=
EXTT2=
EXTT3=
EXTT4=
EXTT5=
EXTT6=
EXTT7=
EXTT8=
EXTT9=
EXTT10=
PLAYORDER=
